#!OML:ASF F:\VICON\USERDATA\INSTALL\rory3\rory3.ASF
:FULLY-SPECIFIED
:DEGREES
95
root -10.0697 16.9928 -10.2972 0.555327 11.1896 2.12277
lowerback 8.13347 -0.933296 -4.70567
upperback 0.737473 -1.59986 1.62202
thorax -3.62102 -0.71182 4.51611
lowerneck -15.5978 -2.0501 -9.83369
upperneck 23.3272 -0.949975 2.86721
head 10.0968 -0.96666 2.53752
rclavicle -1.52567e-014 1.78906e-014
rhumerus -41.242 -19.57 -72.4286
rradius 27.0901
rwrist 8.38822
rhand -13.5122 11.0415
rfingers 7.12502
rthumb 12.5994 -18.5585
lclavicle -1.52567e-014 1.78906e-014
lhumerus -33.2645 14.0261 81.7082
lradius 46.3067
lwrist 6.58508
lhand -22.2813 23.8494
lfingers 7.12502
lthumb 4.13715 53.789
rfemur -28.739 9.95686 9.01189
rtibia 24.7223
rfoot -6.09126 7.63115
rtoes -18.5615
lfemur 1.6898 -10.4126 -31.546
ltibia 43.6648
lfoot 3.40621 -18.1339
ltoes 3.44581
96
root -10.044 17.0009 -10.0544 0.205281 12.0398 1.5362
lowerback 8.41093 -1.10776 -3.98482
upperback 0.787962 -1.77344 1.68252
thorax -3.72381 -0.806417 4.19714
lowerneck -15.6125 -2.02508 -9.76668
upperneck 23.3317 -0.922305 2.83815
head 10.0984 -0.95095 2.51983
rclavicle -1.04859e-014 6.36111e-015
rhumerus -41.3536 -20.1204 -72.2165
rradius 26.5499
rwrist 8.83962
rhand -13.4529 10.2866
rfingers 7.12502
rthumb 12.6566 -19.3099
lclavicle -1.04859e-014 6.36111e-015
lhumerus -33.4708 14.1003 81.5838
lradius 45.7271
lwrist 6.61135
lhand -21.2819 23.3323
lfingers 7.12502
lthumb 5.1022 53.2509
rfemur -28.1087 9.60786 9.83759
rtibia 25.9317
rfoot -5.80771 7.66734
rtoes -20.2929
lfemur 0.325734 -10.2516 -30.4498
ltibia 46.3719
lfoot 8.84806 -18.7491
ltoes 2.34493
97
root -10.0145 17.0071 -9.81686 -0.131293 12.7514 0.928369
lowerback 8.59656 -1.2319 -3.35689
upperback 0.808732 -1.87706 1.86651
thorax -3.8093 -0.864323 4.05139
lowerneck -15.2874 -1.9597 -9.80276
upperneck 23.0707 -0.823402 2.7029
head 9.93702 -0.91776 2.48701
rclavicle -4.90501e-014 1.27222e-014
rhumerus -41.4542 -20.472 -71.8465
rradius 26.0646
rwrist 9.41795
rhand -13.3962 9.2293
rfingers 7.12502
rthumb 12.7113 -20.3638
lclavicle -4.90501e-014 1.27222e-014
lhumerus -33.9036 13.9396 81.7596
lradius 45.4731
lwrist 6.73387
lhand -21.7244 23.7974
lfingers 7.12502
lthumb 4.67492 53.7258
rfemur -27.3501 8.79609 10.8097
rtibia 26.9089
rfoot -6.14463 7.2616
rtoes -23.197
lfemur -1.28234 -9.75899 -29.2803
ltibia 49.2192
lfoot 14.1793 -19.2039
ltoes 1.57179
98
root -9.98542 17.0129 -9.59123 -0.386883 13.3826 0.246291
lowerback 8.74161 -1.29141 -2.80161
upperback 0.860889 -1.89325 2.15852
thorax -3.84253 -0.878833 4.04839
lowerneck -15.0807 -1.93734 -9.69992
upperneck 22.7384 -0.761288 2.37496
head 9.77565 -0.908613 2.35748
rclavicle -7.60351e-015 -1.74931e-014
rhumerus -41.4195 -20.742 -71.4234
rradius 25.6996
rwrist 10.1105
rhand -13.3151 9.3402
rfingers 7.12502
rthumb 12.7895 -20.248
lclavicle -7.60351e-015 -1.74931e-014
lhumerus -34.0212 14.0175 82.1094
lradius 44.9395
lwrist 6.29742
lhand -22.1994 23.0912
lfingers 7.12502
lthumb 4.21619 53.0292
rfemur -26.576 8.19956 11.7639
rtibia 27.6308
rfoot -6.87854 6.87665
rtoes -23.8379
lfemur -3.24101 -9.17526 -28.0339
ltibia 52.1964
lfoot 18.9876 -19.6912
ltoes 2.75894
99
root -9.95319 17.0255 -9.36717 -0.576526 14.0369 -0.516168
lowerback 8.8844 -1.33705 -2.10649
upperback 0.867106 -1.87568 2.43197
thorax -3.93059 -0.877021 3.94405
lowerneck -15.1806 -1.97581 -9.66927
upperneck 22.7445 -0.769917 2.21542
head 9.79803 -0.927375 2.29501
rclavicle 7.60351e-015 -3.26007e-014
rhumerus -41.4544 -20.939 -71.0941
rradius 25.3956
rwrist 10.4856
rhand -13.6616 10.2337
rfingers 7.12502
rthumb 12.4554 -19.3751
lclavicle 7.60351e-015 -3.26007e-014
lhumerus -33.9655 14.3226 82.2918
lradius 43.8068
lwrist 5.4826
lhand -22.0156 21.9679
lfingers 7.12502
lthumb 4.39369 51.9023
rfemur -25.7994 7.91184 12.7048
rtibia 28.0925
rfoot -7.45892 7.24161
rtoes -20.3701
lfemur -5.50528 -8.60366 -26.7041
ltibia 55.2428
lfoot 23.0734 -20.5576
ltoes 6.967
100
root -9.91338 17.0501 -9.14531 -0.863403 14.956 -1.3366
lowerback 9.05175 -1.48292 -1.30864
upperback 0.879989 -1.97831 2.69976
thorax -4.01985 -0.93685 3.79084
lowerneck -15.2463 -1.99351 -9.55739
upperneck 22.8146 -0.778577 2.07514
head 9.83547 -0.938818 2.22668
rclavicle 3.28492e-014 3.18055e-015
rhumerus -41.4867 -21.0303 -70.7985
rradius 25.0294
rwrist 10.991
rhand -13.9262 10.9861
rfingers 7.12502
rthumb 12.2003 -18.6381
lclavicle 3.28492e-014 3.18055e-015
lhumerus -34.0257 14.3052 82.5036
lradius 42.8128
lwrist 5.09693
lhand -21.7034 22.7636
lfingers 7.12502
lthumb 4.69514 52.6916
rfemur -24.7884 7.52184 13.7206
rtibia 28.3371
rfoot -8.23236 7.6023
rtoes -16.805
lfemur -7.77888 -8.26837 -25.392
ltibia 58.2389
lfoot 25.6749 -22.0562
ltoes 8.6622
